<svg width="21" height="21" viewBox="0 0 21 21" fill="none" xmlns="http://www.w3.org/2000/svg">
<path id="Vector" d="M6.59999 0.0500488H15C18.2 0.0500488 20.8 2.65005 20.8 5.85005V14.25C20.8 15.7883 20.1889 17.2636 19.1012 18.3513C18.0135 19.439 16.5382 20.05 15 20.05H6.59999C3.39999 20.05 0.799988 17.4501 0.799988 14.25V5.85005C0.799988 4.31179 1.41106 2.83654 2.49877 1.74883C3.58648 0.661119 5.06173 0.0500488 6.59999 0.0500488ZM6.39999 2.05005C5.44521 2.05005 4.52953 2.42933 3.8544 3.10446C3.17927 3.7796 2.79999 4.69527 2.79999 5.65005V14.45C2.79999 16.44 4.40999 18.05 6.39999 18.05H15.2C16.1548 18.05 17.0704 17.6708 17.7456 16.9956C18.4207 16.3205 18.8 15.4048 18.8 14.45V5.65005C18.8 3.66005 17.19 2.05005 15.2 2.05005H6.39999ZM16.05 3.55005C16.3815 3.55005 16.6995 3.68174 16.9339 3.91617C17.1683 4.15059 17.3 4.46853 17.3 4.80005C17.3 5.13157 17.1683 5.44951 16.9339 5.68393C16.6995 5.91835 16.3815 6.05005 16.05 6.05005C15.7185 6.05005 15.4005 5.91835 15.1661 5.68393C14.9317 5.44951 14.8 5.13157 14.8 4.80005C14.8 4.46853 14.9317 4.15059 15.1661 3.91617C15.4005 3.68174 15.7185 3.55005 16.05 3.55005ZM10.8 5.05005C12.1261 5.05005 13.3978 5.57683 14.3355 6.51451C15.2732 7.4522 15.8 8.72397 15.8 10.05C15.8 11.3761 15.2732 12.6479 14.3355 13.5856C13.3978 14.5233 12.1261 15.05 10.8 15.05C9.47391 15.05 8.20214 14.5233 7.26445 13.5856C6.32677 12.6479 5.79999 11.3761 5.79999 10.05C5.79999 8.72397 6.32677 7.4522 7.26445 6.51451C8.20214 5.57683 9.47391 5.05005 10.8 5.05005ZM10.8 7.05005C10.0043 7.05005 9.24128 7.36612 8.67867 7.92873C8.11606 8.49134 7.79999 9.2544 7.79999 10.05C7.79999 10.8457 8.11606 11.6088 8.67867 12.1714C9.24128 12.734 10.0043 13.05 10.8 13.05C11.5956 13.05 12.3587 12.734 12.9213 12.1714C13.4839 11.6088 13.8 10.8457 13.8 10.05C13.8 9.2544 13.4839 8.49134 12.9213 7.92873C12.3587 7.36612 11.5956 7.05005 10.8 7.05005Z" fill="white"/>
</svg>
